<svg width="350" height="351" viewBox="0 0 350 351" fill="none" xmlns="http://www.w3.org/2000/svg">
<path d="M5.84549 176.039C5.30968 172.292 5.33746 168.354 4.14677 164.829C-3.72764 141.496 -1.22323 121.061 18.9311 104.44C28.3217 96.7076 30.4411 84.9538 32.2669 73.6883C35.3865 54.5353 45.7018 42.6544 65.0425 39.3994C81.5931 36.6207 94.897 28.3601 106.927 16.8763C123.283 1.276 142.485 -4.32501 164.552 3.5307C178.075 8.34971 191.573 7.42878 205.075 3.28855C220.824 -1.5384 234.327 2.09769 244.567 15.0979C256.025 29.6225 270.718 38.022 288.789 41.1778C304.172 43.8651 313.21 53.5865 315.809 68.647C318.901 86.5416 325.692 101.991 339.417 114.479C351.411 125.384 351.744 139.602 347.601 154.095C342.778 170.978 342.096 187.765 347.017 204.691C347.001 210.328 346.984 215.964 346.966 221.601C344.382 229.782 340.06 237.309 334.13 243.096C319.798 257.085 312.591 274.598 306.907 293.112C299.624 306.299 288.947 314.925 273.826 317.207C256.588 319.799 243.376 329.263 231.604 341.342C222.606 346.316 213.779 352.417 202.73 349.456C187.945 345.486 173.07 347.285 158.186 347.979L141.04 351C131.586 350.067 121.68 349.138 115.242 341.445C103.926 327.949 90.5034 319.252 72.5637 318.573C57.6087 314.206 49.4524 303.219 43.7411 289.54C37.3471 274.225 31.1794 258.419 18.3398 247.312C8.41738 238.746 3.30536 228.425 1.27325 215.98C1.8289 202.551 7.55214 189.722 5.84549 176.039Z" fill="#FF9C96"/>
</svg>